<svg width="19" height="20" viewBox="0 0 19 20" fill="none" xmlns="http://www.w3.org/2000/svg">
<path d="M0 19.2391L9.5 0L19 19.2391H0ZM9.5 16.2014C9.7447 16.2014 9.94981 16.1043 10.1153 15.9103C10.2809 15.7162 10.3636 15.4757 10.3636 15.1888C10.3636 14.9019 10.2809 14.6614 10.1153 14.4673C9.94981 14.2732 9.7447 14.1762 9.5 14.1762C9.2553 14.1762 9.05019 14.2732 8.88466 14.4673C8.71913 14.6614 8.63636 14.9019 8.63636 15.1888C8.63636 15.4757 8.71913 15.7162 8.88466 15.9103C9.05019 16.1043 9.2553 16.2014 9.5 16.2014ZM8.63636 13.1636H10.3636V8.10069H8.63636V13.1636Z" fill="#930010"/>
</svg>
