<svg width="52" height="50" viewBox="0 0 52 50" fill="none" xmlns="http://www.w3.org/2000/svg">
<ellipse cx="25.7937" cy="25" rx="25.7937" ry="25" fill="#F9ABAB"/>
<path d="M22.6104 25.5628C22.0227 25.2011 21.4261 24.6531 20.7361 23.9694C19.8501 23.3761 17.7785 21.7401 14.9144 19.4136C13.6174 18.4436 12.6379 17.901 11.332 17.0679" stroke="black" stroke-width="2" stroke-linecap="round"/>
<path d="M31.2173 25.8369C32.4995 24.5626 34.862 22.3786 37.9843 18.8614C38.5363 18.1668 38.7322 17.8955 38.98 17.6653C39.2279 17.4351 39.5217 17.2543 39.8244 16.7939" stroke="black" stroke-width="2" stroke-linecap="round"/>
<path d="M23.7979 33.2358C23.7979 32.874 24.7773 31.4217 26.4082 29.6843C26.9503 29.1069 27.3535 29.5747 27.6518 29.8967C28.2439 30.49 28.8405 31.0408 29.4326 31.5423C29.7308 31.7724 30.0247 31.9533 30.3274 32.1396" stroke="black" stroke-width="2" stroke-linecap="round"/>
</svg>
