<svg width="48" height="48" viewBox="0 0 48 48" fill="none" xmlns="http://www.w3.org/2000/svg">
<rect width="48" height="48" rx="4" fill="#D5DFFF"/>
<path d="M20.625 33C19.0583 33 17.7292 32.4542 16.6375 31.3625C15.5458 30.2708 15 28.9417 15 27.375C15 26.625 15.1417 25.9083 15.425 25.225C15.7083 24.5417 16.1167 23.9333 16.65 23.4L23.4 16.65C23.9333 16.1167 24.5417 15.7083 25.225 15.425C25.9083 15.1417 26.625 15 27.375 15C28.9417 15 30.2708 15.5458 31.3625 16.6375C32.4542 17.7292 33 19.0583 33 20.625C33 21.375 32.8583 22.0917 32.575 22.775C32.2917 23.4583 31.8833 24.0667 31.35 24.6L24.6 31.35C24.0667 31.8833 23.4583 32.2917 22.775 32.575C22.0917 32.8583 21.375 33 20.625 33V33M27.275 25.85L29.95 23.2C30.2833 22.8667 30.5417 22.475 30.725 22.025C30.9083 21.575 31 21.1083 31 20.625C31 19.625 30.6458 18.7708 29.9375 18.0625C29.2292 17.3542 28.375 17 27.375 17C26.8917 17 26.425 17.0917 25.975 17.275C25.525 17.4583 25.1333 17.7167 24.8 18.05L22.15 20.725L27.275 25.85V25.85M20.625 31C21.1083 31 21.575 30.9083 22.025 30.725C22.475 30.5417 22.8667 30.2833 23.2 29.95L25.85 27.275L20.725 22.15L18.05 24.8C17.7167 25.1333 17.4583 25.525 17.275 25.975C17.0917 26.425 17 26.8917 17 27.375C17 28.375 17.3542 29.2292 18.0625 29.9375C18.7708 30.6458 19.625 31 20.625 31V31" fill="#545E79"/>
</svg>
