<svg width="52" height="50" viewBox="0 0 52 50" fill="none" xmlns="http://www.w3.org/2000/svg">
<ellipse cx="25.7937" cy="25" rx="25.7937" ry="25" fill="#B3EDD8"/>
<path d="M6.57593 18.965C7.58813 18.965 9.45321 18.8151 11.7998 18.7005C14.458 18.5108 16.951 18.361 19.2601 18.2463C19.6947 18.2088 19.9267 18.1339 20.4 18.0566" stroke="black" stroke-width="2" stroke-linecap="round"/>
<path d="M25.0857 20.5547C25.552 20.9295 26.4868 22.2898 27.4252 22.8257C27.8927 22.4533 28.2863 21.8447 28.5593 21.2781C28.6776 21.0112 28.7549 20.7864 28.8346 20.5547" stroke="black" stroke-width="2" stroke-linecap="round"/>
<path d="M31.1777 16.9211C31.6417 16.9211 32.1056 16.9211 34.8189 16.9961C37.5321 17.071 42.4807 17.2209 47.5792 17.3753" stroke="black" stroke-width="2" stroke-linecap="round"/>
</svg>
