<svg width="52" height="50" viewBox="0 0 52 50" fill="none" xmlns="http://www.w3.org/2000/svg">
<ellipse cx="25.7937" cy="25" rx="25.7937" ry="25" fill="#EDEBB3"/>
<path d="M17.7492 22.1105C17.7492 21.7662 17.7995 21.0757 17.7877 17.7108C17.7853 17.0296 17.6745 16.9779 17.5728 17.0056C17.3385 17.0693 17.1653 17.4365 17.0765 17.7817C16.7593 19.0152 16.7583 22.2698 16.9858 24.2105C17.054 24.7916 17.2911 24.9364 17.4432 24.9944C17.5187 25.0232 17.5952 24.9382 17.6593 24.7945C17.7233 24.6509 17.7736 24.4225 17.7995 24.1906C17.8254 23.9587 17.8254 23.7303 17.8254 23.4949" stroke="black" stroke-width="2" stroke-linecap="round"/>
<path d="M30.9443 22.3823C30.9443 21.1351 31.1011 17.8654 31.2407 16.5683C31.2662 16.3312 31.4171 16.1598 31.5953 16.0636C31.7736 15.9674 32.0088 15.9674 32.2084 16.1542C32.9952 16.8904 32.8048 18.3522 32.806 22.2408C32.8064 23.5205 32.5292 24.0784 32.3516 24.4548C32.2585 24.6521 32.1347 24.8313 31.9565 24.9275C31.7783 25.0237 31.5431 25.0237 31.3827 24.9303C31.1439 24.6501 30.9846 24.0841 30.8658 23.3936C30.8254 23.0766 30.8254 22.8275 30.8254 22.5709" stroke="black" stroke-width="2" stroke-linecap="round"/>
</svg>
